# xmcd
#
# Track frame offsets: 
#        150
#        17910
#        36885
#        57410
#
# Disc length: 1041 seconds
#
# Revision: 7
# Processed by: cddbd v1.5.2PL0 Copyright (c) Steve Scherf et al.
# Submitted via: ExactAudioCopyFreeDBPlugin 1.0
#
DISCID=2f040f04
DTITLE=Warren G - Regulate (Single)
DYEAR=1994
DGENRE=Rap
TTITLE0=Regulate (Jamming Mix) Feat. Nate Dogg
TTITLE1=Regulate (Radio Version) Feat. Nate Dogg
TTITLE2=2 Pac - Pain
TTITLE3=2 Pac - Loyal To The Game Feat. Treach and Riddler
EXTD=
EXTT0=
EXTT1=
EXTT2=
EXTT3=
PLAYORDER=
